<?xml version="1.0" encoding="UTF-8"?> <svg xmlns="http://www.w3.org/2000/svg" id="Layer_1" width="6.39in" height="2.68in" viewBox="0 0 460.08 192.96"><path d="M103.92,18.94c-17.73,0-28.56,13.4-28.56,36s10.83,35.99,28.56,35.99,28.55-13.4,28.55-35.99-10.82-36-28.55-36M103.92,87c-6.76,0-8.8-7.31-8.8-32.06s2.03-32.08,8.8-32.08,8.8,7.31,8.8,32.08-2.02,32.06-8.8,32.06M233.96,120.96c-7.43,0-12.98,2.84-16.09,7.72v-24.76h-18.95v46c0,25.03-14.22,36.8-27.2,36.8-9.61,0-13.53-6.5-13.53-29.08s2.44-32.76,10.15-32.76c5.14,0,9.33,4.87,13.79,16.11h4.6v-16.65c-5.68-2.3-12.57-3.38-17.99-3.38-19.36,0-30.32,13.81-30.32,36.68s10.83,35.31,29.24,35.31c15.28,0,26.11-8.12,31.25-21.79v20.17h18.95v-51.29c0-7.85,4.33-11.78,8.8-11.78s5.82,3.66,5.82,9.07v53.99h18.94v-50.48c0-14.08-6.9-19.9-17.46-19.9M163.06,1.88h-18.95v87.42h18.95V1.88M212.32,1.88v23.8c-1.66-4.12-5.77-6.74-12.32-6.74-14.89,0-24.76,13.26-24.76,35.73s8.79,36.26,24.08,36.26c7.14,0,11.95-3.29,14.21-10.3v8.68h17.72V1.88h-18.94M202.98,85.52c-6.09,0-8.12-6.09-8.12-30.98,0-23.55,2.03-30.46,8.39-30.46,7.04,0,9.47,8.26,9.47,30.46s-3.11,30.98-9.74,30.98M313.13,18.94c-8.54,0-14.6,4.45-17.35,10.76-2.57-7.13-7.97-10.76-15.39-10.76-8.11,0-13.93,3.57-16.78,9.32v-7.7h-17.73v68.74h18.95v-51.15c0-7.85,3.79-11.91,8.39-11.91,3.93,0,5.69,3.11,5.69,8.66v54.4h18.94v-51.15c0-7.85,3.79-11.91,8.39-11.91,3.93,0,5.68,3.11,5.68,8.66v54.4h18.95v-50.47c0-14.08-7.17-19.9-17.73-19.9M297.42,151.01l-10.96-6.5c-7.3-4.33-10-6.9-10-11.37,0-5.14,3.52-8.26,9.61-8.26,7.16,0,12.44,4.6,15.56,16.11h4.6v-17.6c-5.96-1.35-12.86-2.44-18.8-2.44-15.16,0-24.5,7.45-24.5,19.63,0,8.39,4.6,14.35,14.35,20.16l9.07,5.42c7.56,4.46,10.14,7.7,10.14,12.71,0,6.5-4.06,10.02-11.36,10.02-8.8,0-13.94-5.55-17.19-18h-4.6v19.36c6.9,1.9,14.21,2.71,20.3,2.71,17.31,0,27.2-7.99,27.2-21.66,0-9.46-4.47-15.01-13.4-20.29M369.83,18.94c-7.18,0-15.57,1.35-23.42,3.79v16.24h4.6c3.92-10.15,9.2-15.84,16.78-15.84,4.74,0,6.5,2.16,6.5,7.58v8.66c0,4.33-1.08,5.55-6.09,7.31l-5.15,1.76c-15.02,5.14-21.78,11.62-21.78,23.4,0,12.59,7.57,19.08,18.4,19.08,7.77,0,14.2-3.37,16.38-9.86v8.24h17.19v-49.8c0-13.67-8.12-20.57-23.41-20.57M374.29,70.9c0,8.93-2.98,13.13-7.72,13.13-4.46,0-6.09-3.66-6.09-12.86v-1.9c0-10.69,2.3-15.01,8.53-18.26l5.28-2.7v22.59M442.63,18.94c-8.27,0-14.32,3.58-17.32,9.38v-7.76h-17.73v68.74h18.95v-51.28c0-7.85,4.33-11.78,8.8-11.78s5.82,3.66,5.82,9.07v53.99h18.94v-50.47c0-14.08-6.9-19.9-17.45-19.9M67.24,161.84c0,17.58-12.84,29.5-33.15,29.5H4.06v-31.39h4.59c4.2,18.53,11.91,26.92,24.77,26.92,10.56,0,16.11-5.68,16.11-14.89,0-9.73-5.96-14.2-14.76-19.34l-13.26-7.85c-11.22-6.63-17.58-14.62-17.58-25.99,0-12.55,7.37-20.62,19.07-24.11C6.04,90.29,0,75.15,0,48.04,0,17.31,12.84,0,38.83,0h24.23v25.98h-4.74c-5.55-16.52-10.42-21.66-19.36-21.66-12.86,0-16.51,13.81-16.51,44.53,0,35.32,3.11,43.16,12.86,43.16,7.31,0,10.96-4.6,10.96-15.7v-13.54c0-8.24-2.7-11.22-11.23-12.58v-4.33h28.96v73.88h-4.33c-6.5-18.53-15.03-22.73-24.5-22.73s-14.89,4.33-14.89,12.86c0,7.97,4.74,11.62,13.54,16.9l14.48,8.66c11.5,6.9,18.94,13.4,18.94,26.39M103.66,120.96c-7.18,0-15.57,1.36-23.42,3.79v16.25h4.6c3.92-10.16,9.2-15.84,16.78-15.84,4.74,0,6.5,2.17,6.5,7.58v8.66c0,4.33-1.08,5.55-6.09,7.31l-5.14,1.76c-15.02,5.14-21.79,11.64-21.79,23.4,0,12.59,7.58,19.08,18.41,19.08,7.77,0,14.2-3.37,16.38-9.87v8.24h17.18v-49.8c0-13.67-8.11-20.58-23.4-20.58M108.12,172.93c0,8.93-2.98,13.13-7.72,13.13-4.46,0-6.09-3.65-6.09-12.86v-1.89c0-10.68,2.3-15.01,8.53-18.26l5.28-2.71v22.59"></path></svg> 